<svg id="Layer_1" data-name="Layer 1" xmlns="http://www.w3.org/2000/svg" width="42.73mm" height="10.86mm" viewBox="0 0 121.12 30.78"><title>entropia-logo</title><path d="M89.84,2.23h-8.3V20.16h2.31V14.27a.91.91,0,0,1,.91-.91h5.08a4.52,4.52,0,0,0,4.51-4.5V6.74A4.52,4.52,0,0,0,89.84,2.23Zm2.51,6.39a5.21,5.21,0,0,1-.21,1.1,2.84,2.84,0,0,1-.58,1.1,1.77,1.77,0,0,1-1.4.64H85a1.07,1.07,0,0,1-1.1-1.1V5.24A1.06,1.06,0,0,1,85,4.14h5.21a1.78,1.78,0,0,1,1.4.63,3,3,0,0,1,.58,1.11A5.21,5.21,0,0,1,92.35,7c0,.34,0,.61,0,.82S92.38,8.28,92.35,8.62Z"/><rect x="97.06" y="2.23" width="2.32" height="17.93"/><path d="M5.49,18.25a.91.91,0,0,1-.9-.9V13a.9.9,0,0,1,.9-.9H13.3v-2H5.49a.9.9,0,0,1-.9-.9V5a.91.91,0,0,1,.9-.9H14V2.23H5A2.72,2.72,0,0,0,2.27,4.94V17.45A2.72,2.72,0,0,0,5,20.16h9V18.25H5.49Z"/><path d="M30.68,2.23H28.36V17a1,1,0,0,1-1,1.07,1.08,1.08,0,0,1-1-.81v0l-1.75-6.4h0L22.79,4.24v0a2.71,2.71,0,0,0-2.6-2h-.82A2.71,2.71,0,0,0,16.66,5V7a.25.25,0,0,0,0,.08,0,0,0,0,0,0,0v13.1H19V5.4a1,1,0,0,1,1-1.07,1.07,1.07,0,0,1,1,.81v0l1.63,6h0l1.9,7v0a2.71,2.71,0,0,0,2.6,2H28a2.7,2.7,0,0,0,2.7-2.7V2.23Z"/><path d="M40.7,5a.91.91,0,0,1,.9-.9h4.09V2.23H33.39V4.14h4.09a.9.9,0,0,1,.9.9V20.16H40.7V5.24h0Z"/><path d="M73.93,2.23H68.81a4.92,4.92,0,0,0-4.9,4.9v8.13a4.92,4.92,0,0,0,4.9,4.9h5.12a4.92,4.92,0,0,0,4.9-4.9V7.13A4.92,4.92,0,0,0,73.93,2.23ZM74.12,18h-5.5a2.42,2.42,0,0,1-2.41-2.4V6.79a2.42,2.42,0,0,1,2.41-2.4h5.5a2.42,2.42,0,0,1,2.41,2.4V15.6A2.42,2.42,0,0,1,74.12,18Z"/><path d="M59,13.13h0A.41.41,0,0,1,59,13a.44.44,0,0,1,.2-.37h0a4.52,4.52,0,0,0,2-3.74V6.74a4.52,4.52,0,0,0-4.51-4.51H48.4V20.16h2.32V14.27a.9.9,0,0,1,.9-.91h4.55A.92.92,0,0,1,57,14h0l2.24,6.2h2.32Zm-.61-2.31a1.81,1.81,0,0,1-1.41.64H51.81a1.06,1.06,0,0,1-1.09-1.1V5.24a1.06,1.06,0,0,1,1.09-1.1H57a1.8,1.8,0,0,1,1.41.63A3.27,3.27,0,0,1,59,5.88,6.89,6.89,0,0,1,59.22,7c0,.34,0,.61,0,.82s0,.48,0,.82A6.89,6.89,0,0,1,59,9.72,3.13,3.13,0,0,1,58.43,10.82Z"/><path d="M118.71,17.89,111.92,3.13a1.63,1.63,0,0,0-1.45-.91h0a1.6,1.6,0,0,0-1.45.91l-6.8,14.76a1.55,1.55,0,0,0-.14.65,1.63,1.63,0,0,0,1.63,1.62h13.51a1.63,1.63,0,0,0,1.63-1.62A1.55,1.55,0,0,0,118.71,17.89Zm-13.91-.08,5.66-12.45,3.06,6.71.76,1.67,1.85,4.07Z"/><path d="M2.81,24.73l1.21,3,.15.39h0l.14-.39,1.21-3h.4v3.84h-.3V25.28h0l-.15.39L4.3,28.57H4.05L2.86,25.68l-.14-.39h0v3.27h-.3V24.73Z"/><path d="M15.34,27.55H13.5l-.37,1h-.36l1.46-3.84h.4l1.45,3.84h-.37Zm-1.05-2.17-.68,1.87h1.63l-.67-1.87-.13-.4h0Z"/><path d="M24.17,28.57H22.92V24.73h1.25c1.13,0,1.61.54,1.61,1.9S25.26,28.57,24.17,28.57Zm0-3.51h-.91v3.18h.91c.85,0,1.27-.34,1.27-1.61S25.05,25.06,24.16,25.06Z"/><path d="M35.21,28.25l0,.32H32.84V24.73H35.1v.32H33.17v1.36h1.68v.29H33.17v1.55Z"/><path d="M47.52,24.73h.34v3.84h-.34Z"/><path d="M57.33,28.57l-2-3-.22-.35h0v3.31h-.3V24.73h.33l1.92,2.9.22.34h0V24.73h.3v3.84Z"/><path d="M71.45,25v1.38h1.63v.31H71.45v1.82h-.34V24.67h2.26V25Z"/><path d="M82.72,27.09a1.42,1.42,0,1,1-2.83,0V24.64h.34v2.45c0,.78.36,1.13,1.08,1.13s1.07-.36,1.07-1.13V24.64h.34Z"/><path d="M90.52,25v3.51h-.33V25H89v-.33h2.74V25Z"/><path d="M100.83,27.09a1.42,1.42,0,1,1-2.83,0V24.64h.34v2.45c0,.78.35,1.13,1.07,1.13s1.08-.36,1.08-1.13V24.64h.34Z"/><path d="M108.71,26.72l1.06,1.79h-.4l-1-1.73h-.89v1.73h-.33V24.67h1.24c.77,0,1.12.34,1.12,1S109.24,26.66,108.71,26.72ZM108.4,25h-.91v1.54h.88c.56,0,.81-.23.81-.78S108.94,25,108.4,25Z"/><path d="M118.7,28.19v.32h-2.35V24.67h2.26V25h-1.94v1.36h1.68v.29h-1.68v1.55Z"/></svg>